<svg height="320" version="1.1" width="320" xmlns="http://www.w3.org/2000/svg" xmlns:xlink="http://www.w3.org/1999/xlink" style="overflow: hidden; position: relative; top: -0.799988px;" viewBox="0 0 320 320" preserveAspectRatio="xMidYMid meet" id="main_svg"><svg height="320" version="1.1" width="320" xmlns="http://www.w3.org/2000/svg" xmlns:xlink="http://www.w3.org/1999/xlink" style="overflow: hidden; position: relative;" viewBox="0 0 160 160" preserveAspectRatio="xMidYMid meet" id="imported_svg_layer_1"><rect x="0" y="0" width="160" height="160" rx="0" ry="0" fill="url(#gradient_m3q7ly7gucmi02jk9ub27c)" stroke="none" style="opacity: 1; fill-opacity: 1; display: none;" stroke-width="0" opacity="1" fill-opacity="1" transform="matrix(1,0,0,1,0,0)"></rect><desc>Created with Logotizer</desc><defs><linearGradient id="gradient_m3q7ly7gucmi02jk9ub27c" x1="1.8369701987210297e-16" y1="0" x2="0" y2="1"><stop offset="0%" stop-color="#d1c5ea" stop-opacity="1"></stop><stop offset="100%" stop-color="#002c83" stop-opacity="1"></stop></linearGradient></defs></svg><svg height="320" version="1.1" width="320" xmlns="http://www.w3.org/2000/svg" xmlns:xlink="http://www.w3.org/1999/xlink" style="overflow: hidden; position: relative;" viewBox="0 0 160 160" preserveAspectRatio="xMidYMid meet" id="imported_svg_layer_2"><desc>Created with Logotizer</desc><defs></defs><path style="display: none; cursor: move;" fill="#ffffff" stroke="#d5d5d5" d="M160,90L80,20L0,90H40V160H120V90H160" stroke-width="2" transform="matrix(1,0,0,1,0,0)"></path></svg><desc>Created with Logotizer</desc><defs></defs><path style="" fill="#ffbf00" stroke="none" d="M-194.48,0L-194.48,-169.22L-170.45,-169.22L-106.94,-79.69L-94.16,-54.02L-92.99,-54.02L-96.86,-79.69L-96.86,-168.05L-65.57,-168.05L-65.57,1.17L-89.59,1.17L-152.76,-87.66L-165.88,-114.02L-167.17,-114.02L-163.3,-87.66L-163.3,0L-194.48,0ZM-42.13,-84.02Q-42.13,-108.75,-35.28,-125.39Q-28.42,-142.03,-17.52,-152.23Q-6.62,-162.42,6.79,-166.88Q20.21,-171.33,33.69,-171.33Q48.1,-171.33,58.06,-169.45Q68.02,-167.58,74.47,-164.88L68.02,-136.99Q62.52,-139.69,54.96,-140.86Q47.4,-142.03,36.62,-142.03Q16.7,-142.03,4.57,-127.91Q-7.56,-113.79,-7.56,-84.02Q-7.56,-71.02,-4.69,-60.35Q-1.82,-49.69,4.04,-42.13Q9.9,-34.57,18.69,-30.35Q27.48,-26.13,38.96,-26.13Q49.74,-26.13,57.18,-28.3Q64.63,-30.47,70.13,-33.87L76.93,-6.91Q69.2,-1.41,57.3,1Q45.41,3.4,32.99,3.4Q17.87,3.4,4.27,-1.29Q-9.32,-5.98,-19.63,-16.41Q-29.94,-26.84,-36.04,-43.54Q-42.13,-60.23,-42.13,-84.02ZM83.96,-84.02Q83.96,-108.75,90.82,-125.39Q97.67,-142.03,108.57,-152.23Q119.47,-162.42,132.89,-166.88Q146.31,-171.33,159.78,-171.33Q174.2,-171.33,184.16,-169.45Q194.12,-167.58,200.56,-164.88L194.12,-136.99Q188.61,-139.69,181.05,-140.86Q173.49,-142.03,162.71,-142.03Q142.79,-142.03,130.66,-127.91Q118.53,-113.79,118.53,-84.02Q118.53,-71.02,121.4,-60.35Q124.27,-49.69,130.13,-42.13Q135.99,-34.57,144.78,-30.35Q153.57,-26.13,165.06,-26.13Q175.84,-26.13,183.28,-28.3Q190.72,-30.47,196.23,-33.87L203.02,-6.91Q195.29,-1.41,183.4,1Q171.5,3.4,159.08,3.4Q143.96,3.4,130.37,-1.29Q116.77,-5.98,106.46,-16.41Q96.15,-26.84,90.06,-43.54Q83.96,-60.23,83.96,-84.02Z" transform="matrix(0.68,0,0,0.68,160,224.8234)"></path></svg>